<svg width="41" height="32" viewBox="0 0 41 32" fill="none" xmlns="http://www.w3.org/2000/svg">
<path d="M35.0829 11.6322C29.0933 8.66158 25.0175 13.1685 23.4827 14.8652C21.5015 17.0579 19.3079 19.1996 17.1867 21.2707C16.108 22.3257 14.9907 23.4148 13.9072 24.5087C11.9863 26.4437 8.86363 26.4413 6.94273 24.5087C6.81001 24.375 6.68452 24.234 6.56869 24.0881C6.52766 24.0371 6.48905 23.9885 6.45286 23.935C6.40459 23.8669 6.35633 23.7989 6.31047 23.7308C6.26221 23.6603 6.21877 23.5874 6.17775 23.5169C6.13672 23.4488 6.10053 23.3783 6.06192 23.3078C6.03537 23.2568 6.01124 23.2082 5.9847 23.1547C5.95091 23.0818 5.91713 23.0113 5.88817 22.9383C5.76751 22.6515 5.67581 22.3573 5.60824 22.0535C5.60824 22.051 5.60824 22.0462 5.60824 22.0413C5.59135 21.9587 5.57446 21.8736 5.56239 21.7885C5.55032 21.7253 5.54308 21.6597 5.53584 21.594C5.52861 21.5333 5.52137 21.4725 5.51654 21.4117C5.51171 21.3582 5.5093 21.3023 5.50447 21.2488C5.50447 21.2464 5.50447 21.2416 5.50447 21.2391C5.49723 21.0787 5.49723 20.9207 5.50447 20.7626C5.50447 20.7602 5.50447 20.7554 5.50447 20.7529C5.50689 20.6727 5.51413 20.5925 5.52137 20.5123C5.56239 20.1209 5.64685 19.7319 5.77716 19.3576C5.77716 19.3551 5.77716 19.3527 5.77716 19.3503C5.83025 19.202 5.88817 19.0561 5.95574 18.9103C5.98952 18.8374 6.02331 18.7644 6.06192 18.6915C6.09811 18.6234 6.13673 18.5529 6.17534 18.4873C6.19706 18.4484 6.22119 18.412 6.24532 18.3755C6.26945 18.3342 6.296 18.2928 6.32254 18.2515C6.36357 18.1883 6.40459 18.1275 6.45044 18.0668C6.48664 18.0157 6.52766 17.9647 6.56627 17.9136C6.6821 17.7678 6.80518 17.6268 6.94032 17.4931L16.8754 7.485C17.6187 6.73385 18.5453 6.27683 19.5106 6.10909C21.0357 5.84169 22.6622 6.30115 23.8398 7.485C24.4335 8.083 24.8679 8.82686 25.0947 9.63392L25.1912 9.60718C26.586 8.72233 28.2946 7.99307 30.2927 7.82533C29.7908 6.22822 28.9075 4.76238 27.7227 3.5688C24.3539 0.175248 19.2331 -0.403316 15.2658 1.83069C14.4501 2.29014 13.6828 2.8687 12.9878 3.5688L3.05268 13.5769C1.08593 15.5581 0 18.1956 0 21.0009C0 23.8061 1.08352 26.4388 3.05268 28.4225C7.11407 32.5137 13.7238 32.5137 17.7876 28.4225C18.0506 28.1551 18.3185 27.8901 18.5863 27.6251C18.637 27.5716 18.6901 27.5206 18.7456 27.4671C19.3658 26.8521 19.9908 26.2395 20.6062 25.6366C20.7413 25.5054 20.874 25.3765 21.0068 25.2453C23.1883 23.1158 25.4422 20.9134 27.5393 18.5967C29.9452 15.9349 31.1059 15.8328 32.6528 16.5985C34.3082 17.4201 35.5076 19.2725 35.5076 21.0033C35.5076 23.7381 33.2971 25.9648 30.5823 25.9648H24.3346C23.8809 26.4121 23.4272 26.8545 22.9783 27.2921C21.9189 28.3276 20.8258 29.3948 19.7881 30.4401C19.4551 30.778 19.1052 31.0916 18.7432 31.3882V31.5H30.5823C36.3257 31.5 41 26.7913 41 21.0057C41 17.1576 38.6206 13.3921 35.0756 11.6346L35.0829 11.6322Z" fill="#1DD266"/>
</svg>
