<svg width="175" height="32" viewBox="0 0 175 32" fill="none" xmlns="http://www.w3.org/2000/svg">
<path d="M57.3142 14.5093H59.0955L65.371 25.296H63.9454L62.5367 22.9218H53.9605L52.58 25.296H51.0528L57.3142 14.5093ZM61.8846 21.7785L58.2203 15.5764L54.6154 21.7785H61.8846Z" fill="white"/>
<path d="M67.9088 21.7785C67.8975 21.9168 67.8918 22.0382 67.8862 22.1427C67.8806 22.2471 67.8777 22.3375 67.8777 22.4165C67.8777 22.7835 67.937 23.0856 68.0556 23.3227C68.1741 23.5598 68.3633 23.7462 68.6202 23.8788C68.8771 24.0115 69.2074 24.1047 69.6054 24.1527C70.0034 24.2007 70.4834 24.2261 71.0367 24.2261H73.8568C74.5089 24.2261 75.0594 24.2007 75.5111 24.1527C75.9628 24.1047 76.3241 24.003 76.6008 23.8562C76.8774 23.7066 77.0779 23.4977 77.2021 23.2267C77.3263 22.9557 77.3884 22.5915 77.3884 22.137C77.3884 21.7503 77.3432 21.4426 77.2557 21.2083C77.1654 20.9768 77.0271 20.799 76.8323 20.6747C76.6403 20.5505 76.3947 20.4658 76.0983 20.4235C75.8019 20.3783 75.4405 20.3557 75.0143 20.3557H70.4608C69.7578 20.3557 69.1594 20.3049 68.6653 20.2061C68.1713 20.1073 67.7676 19.9408 67.4571 19.7093C67.1466 19.4778 66.9179 19.1701 66.7739 18.789C66.63 18.4079 66.5594 17.9421 66.5594 17.386C66.5594 16.7818 66.6497 16.2878 66.8276 15.9011C67.0054 15.5143 67.2821 15.2094 67.6575 14.9808C68.033 14.7521 68.5129 14.594 69.0973 14.5065C69.6816 14.4161 70.3817 14.3738 71.2032 14.3738H73.6508C74.6501 14.3738 75.4801 14.4077 76.1435 14.4783C76.8069 14.5488 77.3291 14.7408 77.7159 15.057C77.9728 15.2856 78.1591 15.5707 78.272 15.918C78.3849 16.2652 78.4414 16.6887 78.4414 17.194V17.5045H77.1513V17.3408C77.1513 16.954 77.1061 16.6435 77.0186 16.4063C76.9282 16.1692 76.7814 15.9857 76.5725 15.8587C76.3636 15.7317 76.0898 15.6441 75.7482 15.599C75.4067 15.5538 74.9832 15.5312 74.4807 15.5312H70.8024C70.2688 15.5312 69.82 15.5566 69.4586 15.6046C69.0973 15.6554 68.8065 15.7458 68.5835 15.8784C68.3605 16.0111 68.1996 16.1946 68.1007 16.4261C68.0019 16.6576 67.9511 16.9568 67.9511 17.3238C67.9511 17.719 68.0048 18.038 68.1149 18.2808C68.225 18.5236 68.3972 18.7099 68.6343 18.837C68.8714 18.9668 69.1763 19.0487 69.5461 19.0882C69.9159 19.1277 70.3648 19.1475 70.8899 19.1475H74.763C75.4462 19.1475 76.0277 19.1729 76.5076 19.2209C76.9875 19.2717 77.3856 19.3903 77.7017 19.5766C78.1083 19.825 78.3793 20.1581 78.5176 20.5787C78.6559 20.9994 78.7265 21.5414 78.7265 22.202C78.7265 22.8258 78.6474 23.3425 78.4894 23.7518C78.3313 24.1611 78.0744 24.4914 77.7187 24.737C77.363 24.9854 76.9028 25.1605 76.3382 25.2649C75.7736 25.3694 75.0877 25.4202 74.2746 25.4202H70.6104C69.9075 25.4202 69.3033 25.3694 68.7924 25.2706C68.2814 25.1718 67.8636 25.008 67.539 24.7822C67.2115 24.5535 66.9715 24.2628 66.8191 23.9071C66.6667 23.5514 66.5904 23.111 66.5904 22.5859C66.5904 22.4673 66.5904 22.3403 66.5989 22.2076C66.6046 22.0749 66.6102 21.9281 66.6215 21.77H67.9116L67.9088 21.7785Z" fill="white"/>
<path d="M80.9792 25.296V14.5093H82.9073L89.3918 23.8873L95.8762 14.5093H97.8636V25.296H96.5594V15.7994L89.9281 25.296H88.9203L82.2891 15.7994V25.296H80.9849H80.9792Z" fill="white"/>
<path d="M110.593 18.2921C110.593 17.8573 110.452 17.5468 110.169 17.3577C109.887 17.1685 109.449 17.0754 108.857 17.0754H106.214C105.681 17.0754 105.243 17.1007 104.902 17.1487C104.56 17.1995 104.289 17.2984 104.086 17.4452C103.882 17.592 103.744 17.8093 103.671 18.0916C103.597 18.3739 103.561 18.7409 103.561 19.1982V20.6973C103.561 21.1235 103.609 21.4651 103.702 21.7277C103.795 21.9902 103.947 22.1963 104.162 22.343C104.374 22.4927 104.65 22.5943 104.986 22.648C105.322 22.7016 105.732 22.7298 106.217 22.7298H108.131C108.586 22.7298 108.975 22.7129 109.297 22.679C109.619 22.6451 109.884 22.5746 110.09 22.4701C110.296 22.3657 110.449 22.2188 110.542 22.024C110.635 21.8321 110.683 21.5724 110.683 21.2449V21.1264H114.023C114.031 21.2647 114.04 21.3973 114.045 21.5272C114.051 21.6571 114.054 21.7841 114.054 21.9139C114.054 22.5858 113.969 23.1476 113.802 23.5993C113.636 24.051 113.356 24.4179 112.972 24.7059C112.558 25.0136 112.024 25.2112 111.377 25.2987C110.728 25.3891 109.929 25.4314 108.981 25.4314H105.302C104.876 25.4314 104.481 25.4229 104.117 25.4088C103.75 25.3947 103.411 25.358 103.092 25.3044C102.776 25.2507 102.482 25.1689 102.217 25.0588C101.949 24.9515 101.697 24.8075 101.46 24.6297C101.006 24.274 100.684 23.8421 100.495 23.3396C100.306 22.8343 100.213 22.2132 100.213 21.4708V18.532C100.213 17.7218 100.303 17.0471 100.486 16.5136C100.67 15.98 100.966 15.5538 101.376 15.2376C101.785 14.9214 102.313 14.6984 102.956 14.5685C103.6 14.4415 104.382 14.3766 105.3 14.3766H108.978C109.926 14.3766 110.723 14.4161 111.366 14.4951C112.01 14.5742 112.529 14.7661 112.924 15.0738C113.272 15.342 113.523 15.6977 113.681 16.1409C113.839 16.587 113.918 17.1346 113.918 17.7867V18.0832C113.918 18.182 113.913 18.2864 113.904 18.3937H110.596V18.2892L110.593 18.2921Z" fill="white"/>
<path d="M126.853 22.6847V25.296H116.377V14.5093H119.671V22.6847H126.853Z" fill="white"/>
<path d="M133.278 25.4287C132.793 25.4287 132.347 25.4202 131.934 25.4061C131.525 25.3919 131.147 25.3581 130.799 25.3101C130.452 25.2621 130.136 25.1831 129.851 25.0814C129.563 24.977 129.306 24.8415 129.08 24.6721C128.634 24.3446 128.329 23.9268 128.16 23.4102C127.991 22.8964 127.909 22.2471 127.909 21.468V18.5292C127.909 17.688 127.993 16.9964 128.16 16.4515C128.327 15.9067 128.634 15.4663 129.08 15.1304C129.526 14.8029 130.085 14.5968 130.763 14.5065C131.44 14.4161 132.273 14.3738 133.264 14.3738H137.137C138.125 14.3738 138.964 14.419 139.652 14.5065C140.341 14.5968 140.9 14.8029 141.338 15.1304C141.753 15.4466 142.049 15.87 142.227 16.3979C142.405 16.9258 142.495 17.592 142.495 18.3937V21.4059C142.495 22.2076 142.405 22.871 142.227 23.4017C142.049 23.9296 141.753 24.3531 141.338 24.6693C140.892 25.0052 140.327 25.2169 139.638 25.2988C138.949 25.3835 138.117 25.4258 137.137 25.4258H133.281L133.278 25.4287ZM136.259 22.7299C136.784 22.7299 137.227 22.7045 137.594 22.6565C137.961 22.6085 138.261 22.5069 138.492 22.3601C138.724 22.2105 138.893 22.0016 138.997 21.7305C139.102 21.4595 139.153 21.1038 139.153 20.6691V19.1418C139.153 18.7071 139.102 18.3542 138.997 18.0804C138.893 17.8066 138.726 17.5977 138.492 17.4509C138.261 17.3013 137.961 17.2024 137.594 17.1544C137.227 17.1065 136.784 17.081 136.259 17.081H134.153C133.62 17.081 133.168 17.1065 132.804 17.1544C132.437 17.2053 132.138 17.3041 131.906 17.4594C131.675 17.6118 131.508 17.8291 131.409 18.1058C131.31 18.3824 131.26 18.7494 131.26 19.2039V20.703C131.26 21.1292 131.313 21.4736 131.423 21.7418C131.531 22.01 131.703 22.2161 131.934 22.3657C132.166 22.5153 132.465 22.6141 132.832 22.6621C133.199 22.7129 133.642 22.7355 134.167 22.7355H136.259V22.7299Z" fill="white"/>
<path d="M147.743 14.5093V20.9034C147.743 21.2986 147.785 21.6176 147.87 21.8604C147.955 22.1032 148.099 22.2895 148.308 22.4165C148.517 22.5464 148.79 22.6311 149.132 22.6762C149.474 22.7214 149.897 22.744 150.399 22.744H152.268C152.695 22.744 153.053 22.7186 153.344 22.6706C153.635 22.6198 153.875 22.5295 154.064 22.3968C154.253 22.2641 154.388 22.0777 154.473 21.8406C154.558 21.6035 154.6 21.293 154.6 20.9062V14.5121H157.895V21.931C157.895 22.6028 157.804 23.1618 157.626 23.6078C157.448 24.0538 157.175 24.4124 156.802 24.6834C156.432 24.9544 155.958 25.1492 155.385 25.2621C154.812 25.375 154.123 25.4315 153.321 25.4315H149.643C148.683 25.4315 147.876 25.3778 147.218 25.2677C146.56 25.1576 146.027 24.9713 145.614 24.7031C145.205 24.4349 144.909 24.0764 144.725 23.6276C144.542 23.1787 144.451 22.6113 144.451 21.9281V14.5093H147.746H147.743Z" fill="white"/>
<path d="M169.526 14.5093C171.129 14.5093 172.315 14.7916 173.085 15.3562C173.856 15.9208 174.243 16.8439 174.243 18.1312V21.8406C174.243 23.0376 173.944 23.9127 173.345 24.466C172.747 25.0193 171.795 25.296 170.488 25.296H160.057V14.5093H169.523H169.526ZM163.352 17.1657V22.6706H168.93C169.633 22.6706 170.144 22.5294 170.466 22.2471C170.787 21.9648 170.948 21.5188 170.948 20.9034V19.0035C170.948 18.3599 170.751 17.8941 170.356 17.6005C169.96 17.3097 169.348 17.1629 168.515 17.1629H163.352V17.1657Z" fill="white"/>
<path d="M35.0829 11.6322C29.0933 8.66158 25.0175 13.1685 23.4827 14.8652C21.5015 17.0579 19.3079 19.1996 17.1867 21.2707C16.108 22.3257 14.9907 23.4148 13.9072 24.5087C11.9863 26.4437 8.86363 26.4413 6.94273 24.5087C6.81001 24.375 6.68452 24.234 6.56869 24.0881C6.52766 24.0371 6.48905 23.9885 6.45286 23.935C6.40459 23.8669 6.35633 23.7989 6.31047 23.7308C6.26221 23.6603 6.21877 23.5874 6.17775 23.5169C6.13672 23.4488 6.10053 23.3783 6.06192 23.3078C6.03537 23.2568 6.01124 23.2082 5.9847 23.1547C5.95091 23.0818 5.91713 23.0113 5.88817 22.9383C5.76751 22.6515 5.67581 22.3573 5.60824 22.0535C5.60824 22.051 5.60824 22.0462 5.60824 22.0413C5.59135 21.9587 5.57446 21.8736 5.56239 21.7885C5.55032 21.7253 5.54308 21.6597 5.53584 21.594C5.52861 21.5333 5.52137 21.4725 5.51654 21.4117C5.51171 21.3582 5.5093 21.3023 5.50447 21.2488C5.50447 21.2464 5.50447 21.2416 5.50447 21.2391C5.49723 21.0787 5.49723 20.9207 5.50447 20.7626C5.50447 20.7602 5.50447 20.7554 5.50447 20.7529C5.50689 20.6727 5.51413 20.5925 5.52137 20.5123C5.56239 20.1209 5.64685 19.7319 5.77716 19.3576C5.77716 19.3551 5.77716 19.3527 5.77716 19.3503C5.83025 19.202 5.88817 19.0561 5.95574 18.9103C5.98952 18.8374 6.02331 18.7644 6.06192 18.6915C6.09811 18.6234 6.13673 18.5529 6.17534 18.4873C6.19706 18.4484 6.22119 18.412 6.24532 18.3755C6.26945 18.3342 6.296 18.2928 6.32254 18.2515C6.36357 18.1883 6.40459 18.1275 6.45044 18.0668C6.48664 18.0157 6.52766 17.9647 6.56627 17.9136C6.6821 17.7678 6.80518 17.6268 6.94032 17.4931L16.8754 7.485C17.6187 6.73385 18.5453 6.27683 19.5106 6.10909C21.0357 5.84169 22.6622 6.30115 23.8398 7.485C24.4335 8.083 24.8679 8.82686 25.0947 9.63392L25.1912 9.60718C26.586 8.72233 28.2946 7.99307 30.2927 7.82533C29.7908 6.22822 28.9075 4.76238 27.7227 3.5688C24.3539 0.175248 19.2331 -0.403316 15.2658 1.83069C14.4501 2.29014 13.6828 2.8687 12.9878 3.5688L3.05268 13.5769C1.08593 15.5581 0 18.1956 0 21.0009C0 23.8061 1.08352 26.4388 3.05268 28.4225C7.11407 32.5137 13.7238 32.5137 17.7876 28.4225C18.0506 28.1551 18.3185 27.8901 18.5863 27.6251C18.637 27.5716 18.6901 27.5206 18.7456 27.4671C19.3658 26.8521 19.9908 26.2395 20.6062 25.6366C20.7413 25.5054 20.874 25.3765 21.0068 25.2453C23.1883 23.1158 25.4422 20.9134 27.5393 18.5967C29.9452 15.9349 31.1059 15.8328 32.6528 16.5985C34.3082 17.4201 35.5076 19.2725 35.5076 21.0033C35.5076 23.7381 33.2971 25.9648 30.5823 25.9648H24.3346C23.8809 26.4121 23.4272 26.8545 22.9783 27.2921C21.9189 28.3276 20.8258 29.3948 19.7881 30.4401C19.4551 30.778 19.1052 31.0916 18.7432 31.3882V31.5H30.5823C36.3257 31.5 41 26.7913 41 21.0057C41 17.1576 38.6206 13.3921 35.0756 11.6346L35.0829 11.6322Z" fill="#1DD266"/>
</svg>
