<svg width="19" height="16" viewBox="0 0 19 16" fill="none" xmlns="http://www.w3.org/2000/svg">
<path d="M17.3469 9.4375C17.2531 9.78125 16.9406 10 16.5969 10H7.4406L7.65935 11H16.0344C16.5031 11 16.8781 11.4688 16.7531 11.9375L16.5969 12.6875C17.1906 12.9688 17.5969 13.5625 17.5969 14.25C17.5969 15.2188 16.7844 16 15.8469 16C14.8781 16 14.0969 15.2188 14.0969 14.25C14.0969 13.7812 14.2844 13.3438 14.5969 13H8.0656C8.3781 13.3438 8.59685 13.7812 8.59685 14.25C8.59685 15.2188 7.78435 16 6.84685 16C5.8781 16 5.09685 15.2188 5.09685 14.25C5.09685 13.625 5.4406 13.0625 5.97185 12.75L3.7531 2H1.59685C1.15935 2 0.846851 1.6875 0.846851 1.25V0.75C0.846851 0.34375 1.15935 0 1.59685 0H4.78435C5.1281 0 5.4406 0.28125 5.53435 0.625L5.8156 2H18.0656C18.5656 2 18.9094 2.46875 18.8156 2.9375L17.3469 9.4375Z" fill="white"/>
</svg>
