<svg width="16" height="16" viewBox="0 0 16 16" fill="none" xmlns="http://www.w3.org/2000/svg">
<path fill-rule="evenodd" clip-rule="evenodd" d="M0.902413 0.91035C1.0072 0.595984 1.34699 0.426088 1.66136 0.530877L1.87329 0.601519C1.88385 0.605039 1.89437 0.608548 1.90487 0.612045C2.40597 0.779059 2.82943 0.920197 3.16242 1.0751C3.51637 1.23976 3.82348 1.44384 4.05636 1.76694C4.28923 2.09004 4.38572 2.44593 4.43 2.83378C4.47166 3.19867 4.47164 3.64503 4.47162 4.17323L4.47162 6.30009C4.47162 7.44842 4.4729 8.24931 4.55414 8.85359C4.63306 9.44061 4.77742 9.75147 4.99883 9.97288C5.22024 10.1943 5.5311 10.3386 6.11812 10.4176C6.7224 10.4988 7.52329 10.5001 8.67162 10.5001H14.2716C14.603 10.5001 14.8716 10.7687 14.8716 11.1001C14.8716 11.4315 14.603 11.7001 14.2716 11.7001H8.62773C7.53365 11.7001 6.6518 11.7001 5.95822 11.6069C5.23814 11.5101 4.63184 11.3029 4.1503 10.8214C3.66877 10.3399 3.46165 9.73357 3.36484 9.01349C3.27159 8.31991 3.27161 7.43806 3.27162 6.34399L3.27162 4.20652C3.27162 3.63612 3.27072 3.25871 3.23774 2.9699C3.20652 2.69642 3.152 2.56451 3.08287 2.46859C3.01373 2.37267 2.90583 2.27923 2.65626 2.16313C2.3927 2.04052 2.03494 1.92031 1.49381 1.73994L1.28189 1.6693C0.96752 1.56451 0.797624 1.22472 0.902413 0.91035Z" fill="white"/>
<path opacity="0.5" d="M4.46716 3.49992C4.47114 3.70722 4.47113 3.93158 4.47112 4.17305L4.47112 6.29992C4.47112 7.44826 4.47239 8.24915 4.55364 8.85343C4.56549 8.94162 4.57883 9.02357 4.59368 9.09992H12.6887C13.4563 9.09992 13.84 9.09992 14.1406 8.90173C14.4412 8.70354 14.5923 8.3508 14.8947 7.64533L15.2375 6.84533C15.8851 5.33427 16.2089 4.57875 15.8533 4.03933C15.4976 3.49992 14.6756 3.49992 13.0316 3.49992H4.46716Z" fill="white"/>
<path d="M5.87224 13.1C6.53498 13.1 7.07224 13.6373 7.07224 14.3C7.07224 14.9628 6.53498 15.5 5.87224 15.5C5.2095 15.5 4.67224 14.9628 4.67224 14.3C4.67224 13.6373 5.2095 13.1 5.87224 13.1Z" fill="white"/>
<path d="M14.2722 14.3001C14.2722 13.6373 13.735 13.1001 13.0722 13.1001C12.4095 13.1001 11.8722 13.6373 11.8722 14.3001C11.8722 14.9628 12.4095 15.5001 13.0722 15.5001C13.735 15.5001 14.2722 14.9628 14.2722 14.3001Z" fill="white"/>
</svg>
