<svg width="40" height="40" viewBox="0 0 40 40" fill="none" xmlns="http://www.w3.org/2000/svg">
<path fill-rule="evenodd" clip-rule="evenodd" d="M14.5528 9.61887L9.44921 16.5239C7.30801 19.421 6.23741 20.8695 6.82733 22.0084C6.83709 22.0273 6.84715 22.046 6.8575 22.0645C7.48242 23.1861 9.33148 23.1861 13.0296 23.1861C15.0846 23.1861 16.1122 23.1861 16.7567 23.7923L16.7901 23.8244L23.2433 16.2078L23.21 16.1757C22.5791 15.5564 22.5791 14.5692 22.5791 12.5947V12.0785C22.5791 6.60415 22.5791 3.86696 21.0401 3.39535C19.5012 2.92374 17.8517 5.15545 14.5528 9.61887Z" fill="#1DD266"/>
<path opacity="0.5" d="M17.4212 27.4053L17.4212 27.9213C17.4211 33.3957 17.4211 36.1329 18.96 36.6046C20.499 37.0762 22.1485 34.8445 25.4475 30.381L30.551 23.4761C32.6923 20.579 33.7629 19.1305 33.173 17.9916C33.1632 17.9727 33.1531 17.954 33.1428 17.9354C32.5179 16.8139 30.6688 16.8139 26.9707 16.8139C24.9156 16.8139 23.8881 16.8139 23.2436 16.2077L16.7904 23.8243C17.4213 24.4436 17.4212 25.4308 17.4212 27.4053Z" fill="#1DD266"/>
</svg>
