<svg width="24" height="19" viewBox="0 0 24 19" fill="none" xmlns="http://www.w3.org/2000/svg">
<path d="M4.94 7C5.22 7 5.45667 7.09667 5.65 7.29C5.84334 7.48333 5.94 7.72 5.94 8C6.74 8 7.51 8.13 8.25 8.39C8.99 8.65 9.66667 9.02 10.28 9.5H12.44C13.0933 9.5 13.71 9.63333 14.29 9.9C14.87 10.1667 15.3733 10.5333 15.8 11H18.94C19.9267 11 20.8233 11.26 21.63 11.78C22.4367 12.3 23.0467 12.9933 23.46 13.86C22.26 15.4467 20.7533 16.6933 18.94 17.6C17.06 18.5333 15.06 19 12.94 19C10.2333 19 7.88 18.4467 5.88 17.34C5.81334 17.54 5.69334 17.7 5.52 17.82C5.34667 17.94 5.15334 18 4.94 18H1.94C1.66 18 1.42334 17.9033 1.23 17.71C1.03667 17.5167 0.940002 17.28 0.940002 17V8C0.940002 7.72 1.03667 7.48333 1.23 7.29C1.42334 7.09667 1.66 7 1.94 7H4.94ZM5.94 10V15.02L5.98 15.06C7.83334 16.3533 10.1533 17 12.94 17C14.4333 17 15.8567 16.7267 17.21 16.18C18.5633 15.6333 19.7533 14.8667 20.78 13.88L20.9 13.74L20.8 13.64C20.3067 13.2533 19.7533 13.04 19.14 13H18.94H16.84C16.9067 13.3333 16.94 13.6667 16.94 14V15H7.94V13H14.74L14.7 12.92C14.5 12.52 14.2167 12.19 13.85 11.93C13.4833 11.67 13.0667 11.5267 12.6 11.5H9.52C9.05334 11.0333 8.51334 10.6667 7.9 10.4C7.28667 10.1333 6.63334 10 5.94 10ZM3.94 9H2.94V16H3.94V9ZM17.94 3C18.4867 3 18.99 3.13333 19.45 3.4C19.91 3.66667 20.2733 4.03 20.54 4.49C20.8067 4.95 20.94 5.45333 20.94 6C20.94 6.54667 20.8067 7.05 20.54 7.51C20.2733 7.97 19.91 8.33333 19.45 8.6C18.99 8.86667 18.4867 9 17.94 9C17.3933 9 16.89 8.86667 16.43 8.6C15.97 8.33333 15.6067 7.97 15.34 7.51C15.0733 7.05 14.94 6.54667 14.94 6C14.94 5.45333 15.0733 4.95 15.34 4.49C15.6067 4.03 15.97 3.66667 16.43 3.4C16.89 3.13333 17.3933 3 17.94 3ZM17.94 5C17.66 5 17.4233 5.09667 17.23 5.29C17.0367 5.48333 16.94 5.72 16.94 6C16.94 6.28 17.0367 6.51667 17.23 6.71C17.4233 6.90333 17.66 7 17.94 7C18.22 7 18.4567 6.90333 18.65 6.71C18.8433 6.51667 18.94 6.28 18.94 6C18.94 5.72 18.8433 5.48333 18.65 5.29C18.4567 5.09667 18.22 5 17.94 5ZM10.94 0C11.4867 0 11.99 0.133333 12.45 0.4C12.91 0.666666 13.2733 1.03 13.54 1.49C13.8067 1.95 13.94 2.45333 13.94 3C13.94 3.54667 13.8067 4.05 13.54 4.51C13.2733 4.97 12.91 5.33333 12.45 5.6C11.99 5.86667 11.4867 6 10.94 6C10.3933 6 9.89 5.86667 9.43 5.6C8.97 5.33333 8.60667 4.97 8.34 4.51C8.07334 4.05 7.94 3.54667 7.94 3C7.94 2.45333 8.07334 1.95 8.34 1.49C8.60667 1.03 8.97 0.666666 9.43 0.4C9.89 0.133333 10.3933 0 10.94 0ZM10.94 2C10.66 2 10.4233 2.09667 10.23 2.29C10.0367 2.48333 9.94 2.72 9.94 3C9.94 3.28 10.0367 3.51667 10.23 3.71C10.4233 3.90333 10.66 4 10.94 4C11.22 4 11.4567 3.90333 11.65 3.71C11.8433 3.51667 11.94 3.28 11.94 3C11.94 2.72 11.8433 2.48333 11.65 2.29C11.4567 2.09667 11.22 2 10.94 2Z" fill="white"/>
</svg>
